<?xml version="1.0" encoding="utf-8"?>
<!-- Generator: Adobe Illustrator 16.0.0, SVG Export Plug-In . SVG Version: 6.00 Build 0)  -->
<!DOCTYPE svg PUBLIC "-//W3C//DTD SVG 1.1//EN" "http://www.w3.org/Graphics/SVG/1.1/DTD/svg11.dtd">
<svg version="1.1" xmlns="http://www.w3.org/2000/svg" xmlns:xlink="http://www.w3.org/1999/xlink" x="0px" y="0px" width="256px"
	 height="256px" viewBox="0 0 256 256" style="enable-background:new 0 0 256 256;" xml:space="preserve">
<g id="Layer_1" style="display:none;">
	<path style="display:inline;fill:#231F20;" d="M-22.258,253.946l2.311,3.334c0,0,0.667-1.867,0-4.045
		C-19.947,253.235-21.324,252.303-22.258,253.946z"/>
	<path style="display:inline;fill:#231F20;" d="M-24.035,253.946l2.311,3.334c0,0,0.667-1.867,0-4.045
		C-21.724,253.235-23.101,252.303-24.035,253.946z"/>
	<path style="display:inline;fill:#FFFFFF;stroke:#231F20;stroke-miterlimit:10;" d="M51.182,318.622c0,0,3.701,8.325,1.48,17.021
		c0,0,0.74,7.957,3.146,9.807c0,0-0.741,7.03,0,11.842l0.925,3.701c0,0-11.287,4.624-17.948,1.664c0,0-2.22-6.477,6.105-8.326
		c0,0-3.7-22.201-7.678-27.568l-4.348-5.289l2.775-8.402l9.159-2.22L51.182,318.622z"/>
	<path style="display:inline;fill:#FFFFFF;" d="M3.816,232.586c0,0-3.692-4.949-4.281-7.07c0,0-2.166,2.497-1.143,6.998
		C-1.608,232.514,1.464,234.445,3.816,232.586z"/>
	<path style="display:inline;fill:#FFFFFF;stroke:#231F20;stroke-miterlimit:10;" d="M140.062,257.57c0,0,18.246-2.78,21.392,26.453
		c0,0,1.659,17.207,0.922,34.784c0,0-1.292,9.945,8.145,16.814c0,0,5.181,3.168,4.44,7.979c0,0-0.627,5.521-7.4,5.736h-8.696V343.6
		h8.696c0,0,2.389,0.387,2.785-1.695c0,0,0.693-1.536-3.617-3.617c0,0-6.84-4.461-8.424-10.211c0,0-2.215-8.529-1.538-16.405
		c0,0,1.821-33.107-9.096-32.552l-8.325-20.722L140.062,257.57z"/>
	<path style="display:inline;fill:#FFFFFF;stroke:#231F20;stroke-miterlimit:10;" d="M121.49,312.516c0,0-1.85,8.511-13.135,19.982
		c0,0-1.482,5.551-1.482,8.511c0,0,3.887,4.07-2.403,8.696l-6.477,8.695v2.592l-3.7,2.654c0,0-10.547,1.414-14.803-3.766
		c0,0,1.851-9.436,10.177-4.625l4.626-10.361l-0.926-27.014C93.367,317.881,111.207,298.481,121.49,312.516z"/>
	<path style="display:inline;fill:#FFFFFF;stroke:#231F20;stroke-miterlimit:10;" d="M-9.1,263.623c0,0,3.757,3.431,6.371,9.965
		c0,0,0.817-0.817,1.307-3.104c0,0,2.071,2.504,2.562,4.772c0,0,0.674-1.409,0.245-3.433c0,0,1.593,0.859,2.39,2.942
		c0,0,0.491-2.513-0.551-4.352c0,0,5.332,4.29,6.681,13.179c0,0,0.491,4.72,0,9.807c0,0,1.41-0.675,1.838-1.839
		c0,0-0.156,18.366,8.459,29.913c0,0,0.82,9.176,0.451,21.201c0,0-2.96,3.331-0.925,10.177c0,0-0.37,3.515-1.666,5.088
		c0,0-8.418-0.647-8.233,6.661c0,0,9.344,3.053,21.186,0l0.555-11.009c0,0,3.33-2.313,0-5.828l1.48-8.788
		c0,0,3.7-5.181,4.163-12.213c0,0,0.093-9.065,3.608-11.562c0,0,9.899,8.233,27.939,7.493c0,0,17.67-0.37,25.07-3.238
		c0,0,6.476-2.405,10.177-5.828c0,0,7.401-5.644,10.73-4.719c0,0,8.326,5.552,15.913,16.282c0,0,6.473,7.956,10.73,11.935
		c0,0,12.211,9.436,10.916,21.369c0,0-6.66-2.128-6.938,6.014c0,0,4.811,3.794,16.929,0.37c0,0,0.555-5.182-1.11-12.212
		c0,0-1.572-9.065,0.371-14.246c0,0-9.436-8.882-9.805-16.467l-1.02-29.789c0,0,0.463-34.691-15.08-36.079
		c0,0-13.043-3.885-40.798,0.925c0,0-37.004,5.551-43.48,2.405c0,0-14.801-10.732-19.796-11.287c0,0-7.032-16.651-27.754-15.542
		c0,0-19.427-1.295-19.981,5.55c0,0-14.395,6.565-13.616,9.511c0,0,2.253,7.536,7.104,6.756c0,0,7.623-1.904,10.308,5.372
		c0,0-3.379,6.497-8.662,2.945c0,0-1.04-1.472-2.599-0.78c0,0-1.646,3.206,1.646,6.583c0,0,3.573,2.649,8.228-1.126
		C-13.756,267.398-10.854,263.658-9.1,263.623z"/>
	<path style="display:inline;fill:#FFFFFF;" d="M5.543,235.768c0,0,0-8.013,7.424-7.658c0,0,4.36,6.48-2.356,12.96
		C10.611,241.069,6.723,240.363,5.543,235.768z"/>
	<g style="display:inline;">
		<path style="fill:#3B1414;" d="M89.516,258.45c0.414,0.671,0.836,1.304,1.185,1.909c0.746,1.36,1.399,2.801,2.058,4.337
			l2.046,4.505l0.917,2.233l0.775,2.261c0.23,0.757,0.399,1.523,0.605,2.283c0.193,0.763,0.34,1.602,0.508,2.395
			c0.137,0.71,0.286,1.422,0.409,2.131c0,0,0.473,1.856,0.833,3.68c0.385,1.824,0.61,3.625,0.626,3.466
			c0.274,1.502,0.441,2.756,0.726,3.027c0.129,0.134,0.277,0.019,0.421-0.448c0.14-0.468,0.322-1.292,0.384-2.569
			c0.14-1.51,0.092-3.341,0.006-4.788c-0.055-0.72-0.101-1.35-0.146-1.795c-0.049-0.444-0.077-0.709-0.077-0.709
			c-0.147-0.851-0.313-1.692-0.479-2.535c-0.175-0.821-0.312-1.612-0.522-2.449c-0.221-0.834-0.412-1.683-0.662-2.503l-0.829-2.426
			l-0.964-2.35l-2.049-4.516c-0.642-1.5-1.346-3.074-2.191-4.608c-0.324-0.555-0.656-1.079-0.975-1.581
			c-0.838,0.117-1.844,0.253-2.982,0.405C89.262,258.023,89.389,258.243,89.516,258.45z"/>
		<path style="fill:#3B1414;" d="M86.434,260.344c1.439,2.301,2.64,4.769,3.58,7.329l0.363,0.997l0.323,1.01
			c0,0,0.683,1.747,1.178,3.522c0.499,1.771,0.818,3.551,0.831,3.393c0.318,1.48,0.553,2.725,0.834,2.988
			c0.134,0.13,0.278,0.011,0.406-0.462c0.066-0.236,0.13-0.562,0.191-0.99c0.053-0.427,0.072-0.955,0.096-1.599
			c0.04-1.514-0.076-3.365-0.32-4.811c-0.091-0.73-0.242-1.349-0.324-1.798c-0.084-0.448-0.151-0.71-0.151-0.71
			c-0.264-0.839-0.53-1.677-0.843-2.497c-1.003-2.729-2.277-5.356-3.824-7.836c-0.197-0.32-0.402-0.633-0.613-0.947
			c-0.961,0.125-2.002,0.258-3.101,0.394C85.54,258.981,86.005,259.649,86.434,260.344z"/>
		<path style="fill:#3B1414;" d="M81.266,260.839c0.166,0.26,0.319,0.514,0.448,0.753l0.411,0.836
			c0.268,0.568,0.562,1.119,0.811,1.701l0.738,1.75c0.248,0.583,0.458,1.191,0.689,1.785c0.459,1.185,0.874,2.418,1.287,3.625
			l0.582,1.822c0.199,0.605,0.385,1.214,0.539,1.831c0.33,1.229,0.681,2.454,0.925,3.703l0.403,1.864l0.309,1.881
			c0.24,1.249,0.342,2.52,0.486,3.784c0.076,0.722,0.121,1.054,0.159,1.502l0.077,1.304c0,0,0.059,0.474,0.145,1.18
			c0.043,0.354,0.094,0.765,0.147,1.205c0.039,0.443,0.083,0.913,0.126,1.381c0.088,0.938,0.176,1.865,0.24,2.54
			c0.059,0.676,0.097,1.098,0.111,1.017c0.345,3.084,0.965,5.096,1.529,0.083c0.215-1.476,0.316-3.282,0.414-4.715
			c0.059-1.437,0.055-2.507,0.055-2.507c-0.059-0.863-0.074-1.724-0.187-2.587c-0.399-4.728-1.364-9.42-2.743-13.953
			c-0.713-2.275-1.447-4.484-2.312-6.695c-0.199-0.555-0.426-1.104-0.662-1.653l-0.701-1.646l-0.791-1.624
			c-0.139-0.276-0.244-0.527-0.411-0.824c-0.163-0.297-0.328-0.559-0.49-0.82c-0.177-0.275-0.347-0.537-0.517-0.797
			c-0.984,0.118-2.004,0.235-3.049,0.352C80.451,259.598,80.883,260.235,81.266,260.839z"/>
		<path style="fill:#3B1414;" d="M103.857,256.736l0.293,0.526c0.098,0.177,0.186,0.394,0.277,0.59l0.551,1.203l1.104,2.408
			l0.972,2.496c0.312,0.831,0.679,1.666,0.937,2.494c0.581,1.65,1.062,3.33,1.43,5.043c0.172,0.86,0.377,1.71,0.49,2.588
			c0.127,0.868,0.297,1.757,0.344,2.584c0.082,0.671,0.077,1.379,0.097,2.078c0,0,0.011,0.116,0.026,0.318
			c0.01,0.208,0.023,0.503,0.041,0.855c0.039,0.7,0.064,1.662,0.1,2.611c0.064,1.914,0.26,3.829,0.303,3.659
			c0.231,1.599,0.758,2.858,1.044,3.056c0.157,0.101,0.265-0.053,0.337-0.536c0.034-0.241,0.056-0.563,0.063-0.974
			c0.003-0.41,0.067-0.925,0.087-1.532c0.129-1.446,0.345-3.184,0.514-4.608c0.086-0.704,0.143-1.333,0.182-1.783
			c0.038-0.449,0.062-0.716,0.062-0.716c-0.023-0.886-0.005-1.763-0.11-2.673c-0.064-0.978-0.235-1.866-0.368-2.783
			c-0.12-0.914-0.335-1.823-0.517-2.733c-0.391-1.817-0.906-3.617-1.522-5.371c-0.283-0.898-0.646-1.72-0.967-2.58l-0.993-2.553
			l-1.152-2.52l-0.578-1.259c-0.102-0.211-0.18-0.415-0.299-0.634l-0.329-0.59c-0.979,0.105-1.986,0.223-3.019,0.353
			L103.857,256.736z"/>
		<path style="fill:#3B1414;" d="M99.295,257.838c0.641,1.455,1.064,3.194,1.988,4.93c0.049,0.099,0.121,0.237,0.149,0.304
			l0.097,0.213l0.103,0.211l0.073,0.236c0.051,0.156,0.107,0.312,0.137,0.497c0.036,0.178,0.077,0.348,0.1,0.553
			c0.123,0.77,0.18,1.703,0.441,2.709l0.777,2.491c0.137,0.378,0.181,0.799,0.275,1.195c0.083,0.403,0.176,0.802,0.25,1.209
			c0.107,0.836,0.244,1.652,0.329,2.505l0.272,2.582c0.076,0.746,0.173,1.479,0.27,2.211c0,0,0.381,1.896,0.755,3.755
			c0.361,1.838,0.63,3.636,0.637,3.476c0.271,1.499,0.454,2.748,0.731,3.021c0.129,0.135,0.277,0.021,0.421-0.447
			c0.149-0.468,0.312-1.294,0.376-2.574c0.115-1.507,0.079-3.34,0-4.767c-0.068-1.432-0.145-2.474-0.145-2.474
			c-0.107-0.833-0.223-1.67-0.305-2.496c-0.092-0.863-0.186-1.727-0.274-2.591c-0.087-0.873-0.233-1.769-0.351-2.651
			c-0.082-0.446-0.18-0.892-0.272-1.339c-0.106-0.445-0.156-0.896-0.31-1.336l-0.771-2.476c-0.182-0.675-0.239-1.481-0.38-2.424
			c-0.027-0.226-0.083-0.479-0.134-0.726c-0.043-0.244-0.121-0.501-0.205-0.757l-0.126-0.383l-0.173-0.376l-0.314-0.656
			c-0.726-1.329-1.146-2.992-1.887-4.717c-0.102-0.257-0.222-0.511-0.348-0.763c-0.947,0.128-1.916,0.269-2.904,0.42
			C98.837,256.864,99.094,257.327,99.295,257.838z"/>
		<path style="fill:#3B1414;" d="M94.084,257.121c0.336,0.508,0.639,1.06,0.932,1.621c0.518,1.032,0.971,2.12,1.392,3.231
			c0.251,0.667,0.493,1.339,0.724,2.022c0,0,0.182,0.445,0.453,1.11c0.277,0.667,0.648,1.554,1.016,2.435
			c0.74,1.72,1.277,3.401,1.252,3.25c0.247,0.704,0.426,1.354,0.598,1.863c0.139,0.51,0.285,0.881,0.426,1.01
			c0.135,0.129,0.276,0.011,0.396-0.469c0.123-0.478,0.229-1.336,0.094-2.634c-0.109-1.542-0.551-3.348-0.901-4.721
			c-0.356-1.388-0.612-2.39-0.612-2.39c-0.275-0.814-0.559-1.635-0.867-2.452c-0.444-1.172-0.927-2.342-1.502-3.496
			c-0.149-0.286-0.301-0.57-0.457-0.854c-0.719,0.115-1.441,0.234-2.179,0.362C94.847,257.01,94.576,257.05,94.084,257.121z"/>
		<path style="fill:#3B1414;" d="M64.416,261.059l0.262,1.013c0.126,0.433,0.192,0.92,0.283,1.387
			c0.089,0.461,0.163,0.959,0.238,1.45c0.072,0.483,0.16,0.993,0.248,1.501l0.127,0.752l0.101,0.674
			c0.25,1.811,0.2,3.746,0.091,5.707c-0.124,1.952-0.223,4.021-0.402,5.944l-0.24,2.929l-0.389,2.936l-0.288,2.15
			c0,0-0.038,0.496-0.094,1.234c-0.044,0.718-0.101,1.673-0.159,2.618c-0.094,1.872-0.406,3.6-0.347,3.457
			c-0.024,0.186-0.047,0.366-0.071,0.542c-0.033,0.169-0.064,0.335-0.095,0.495c-0.066,0.314-0.091,0.628-0.156,0.876
			c-0.122,0.5-0.173,0.894-0.114,1.078c0.051,0.18,0.234,0.156,0.57-0.209c0.355-0.355,0.849-1.079,1.319-2.3
			c0.604-1.426,1.031-3.237,1.319-4.633c0.289-1.381,0.501-2.396,0.501-2.396l0.346-2.545c0.13-0.999,0.262-1.998,0.395-2.997
			l0.251-3.032c0.188-2.051,0.278-3.967,0.407-5.996c0.11-2.018,0.182-4.093-0.112-6.238l-0.122-0.806l-0.122-0.723
			c-0.081-0.474-0.163-0.946-0.238-1.449c-0.077-0.497-0.147-0.985-0.247-1.503c-0.1-0.513-0.167-1.016-0.316-1.544
			c-0.104-0.401-0.197-0.794-0.312-1.202c-0.016-0.044-0.031-0.083-0.046-0.127c-0.984,0.063-1.951,0.117-2.895,0.16
			C64.229,260.543,64.334,260.811,64.416,261.059z"/>
		<path style="fill:#3B1414;" d="M69.13,260.453c0.337,0.67,0.64,1.288,0.798,1.871c0.065,0.179,0.123,0.439,0.178,0.692l0.17,0.752
			l0.34,1.506l0.677,3.012l0.524,3.041c0.128,1.01,0.292,2.021,0.393,3.03l0.116,1.511c0.032,0.503,0.103,1.008,0.084,1.509
			l0.002,1.505c-0.002,0.503,0.02,1-0.039,1.516l-0.476,6.196l-0.169,2.219c0,0-0.007,0.489-0.02,1.221
			c0.018,0.377,0.04,0.817,0.062,1.288c0.031,0.443,0.066,0.916,0.1,1.386c0.01,0.44,0.057,0.902,0.042,1.295
			c-0.023,0.384-0.017,0.772-0.053,1.053c-0.068,0.542-0.208,0.954-0.157,0.883c-0.179,0.712-0.385,1.456-0.417,2.07
			c-0.032,0.625,0.114,1.068,0.24,1.195c0.137,0.13,0.269-0.023,0.434-0.446c0.102-0.212,0.216-0.486,0.405-0.838
			c0.183-0.356,0.437-0.778,0.737-1.36c0.183-0.337,0.368-0.723,0.514-1.167c0.128-0.428,0.207-0.852,0.305-1.291
			c0.14-0.856,0.215-1.697,0.262-2.399c0.062-0.716,0.107-1.266,0.166-1.703c0.064-0.431,0.103-0.688,0.103-0.688l0.196-2.508
			c0.158-2.092,0.32-4.186,0.48-6.278c0.059-0.521,0.039-1.068,0.041-1.608l-0.002-1.622c0.018-0.543-0.056-1.076-0.088-1.612
			l-0.125-1.607c-0.104-1.065-0.273-2.115-0.409-3.173l-0.536-3.123l-0.693-3.092l-0.349-1.546l-0.175-0.772
			c-0.057-0.255-0.109-0.507-0.21-0.822c-0.19-0.671-0.457-1.267-0.725-1.816c-0.994,0.085-1.986,0.166-2.969,0.238
			C68.969,260.134,69.052,260.295,69.13,260.453z"/>
		<path style="fill:#3B1414;" d="M73.986,260.347c0.215,0.293,0.443,0.577,0.648,0.879l0.596,0.919
			c2.801,4.396,4.507,9.486,5.49,14.688c0.117,0.704,0.25,1.405,0.355,2.111c0,0,0.092,0.465,0.229,1.157
			c0.152,0.691,0.291,1.622,0.449,2.542c0.133,0.924,0.265,1.838,0.361,2.504c0.078,0.668,0.135,1.084,0.146,1.004
			c0.24,1.522,0.451,2.788,0.734,3.05c0.26,0.261,0.584-0.482,0.796-3.014c0.081-0.747,0.136-1.574,0.154-2.398
			c0.038-0.823,0.031-1.64,0.017-2.365c-0.004-0.725-0.039-1.354-0.07-1.804c-0.029-0.45-0.047-0.718-0.047-0.718
			c-0.103-0.863-0.279-1.718-0.417-2.577c-1.032-5.455-2.823-10.874-5.872-15.668l-0.648-1.002c-0.087-0.128-0.18-0.252-0.273-0.376
			c-1.062,0.109-2.137,0.213-3.215,0.312L73.986,260.347z"/>
		<path style="fill:#3B1414;" d="M128.34,255.28l0.492,0.987c1.311,2.686,2.32,5.553,3.118,8.475c0.197,0.73,0.365,1.469,0.55,2.204
			c0.201,0.798,0.406,1.594,0.674,2.367c0.514,1.55,1.16,3.027,1.82,4.45l0.992,2.11l0.969,2.111
			c0.664,1.431,1.37,2.851,2.138,4.243c0.771,1.394,1.606,2.762,2.53,4.081l0.613,0.851c0.135,0.186,0.282,0.364,0.422,0.548
			c0.281,0.365,0.57,0.726,0.875,1.073c0,0,1.392,1.49,2.992,2.691c0.389,0.31,0.799,0.592,1.188,0.842
			c0.377,0.263,0.749,0.474,1.062,0.648c0.63,0.361,0.992,0.539,0.936,0.486c0.38,0.191,0.736,0.359,1.074,0.511l-0.056-1.646
			c-0.044-0.038-0.087-0.072-0.133-0.111c-0.276-0.239-0.567-0.49-0.862-0.746c-0.145-0.125-0.292-0.25-0.438-0.376l-0.422-0.403
			c-0.283-0.264-0.559-0.529-0.812-0.808c-0.257-0.271-0.511-0.523-0.727-0.787c-0.45-0.504-0.817-0.964-1.077-1.295
			c-0.264-0.323-0.407-0.53-0.407-0.53c-0.274-0.329-0.563-0.643-0.821-0.987l-0.397-0.508c-0.065-0.085-0.134-0.168-0.194-0.257
			l-0.25-0.346c-0.892-1.227-1.705-2.521-2.461-3.858c-0.754-1.335-1.449-2.716-2.108-4.122c-0.634-1.39-1.327-2.892-1.989-4.293
			c-0.664-1.417-1.284-2.812-1.772-4.228l-0.341-1.067l-0.279-1.078l-0.582-2.335c-0.819-3.037-1.856-6.025-3.236-8.897
			c-0.936-0.129-2.025-0.255-3.277-0.364C128.211,255.038,128.279,255.156,128.34,255.28z"/>
		<path style="fill:#3B1414;" d="M119.936,254.603l0.213,0.311l1.218,1.901c1.883,3.002,3.634,6.084,5.098,9.293
			c1.458,3.203,2.688,6.532,3.613,9.893l0.233,0.995c0.079,0.332,0.115,0.679,0.174,1.017c0,0,0.025,0.112,0.068,0.308
			c0.051,0.192,0.106,0.474,0.158,0.816c0.053,0.342,0.117,0.74,0.186,1.166c0.053,0.433,0.108,0.892,0.162,1.35
			c0.186,1.846,0.29,3.697,0.324,3.535c0.304,3.104,0.903,5.102,1.525,0.107c0.211-1.477,0.398-3.283,0.414-4.755
			c0.034-0.729-0.014-1.379-0.016-1.836c-0.006-0.46-0.043-0.737-0.043-0.737l-0.211-1.331l-0.308-1.328
			c-0.985-3.574-2.257-7.008-3.776-10.352c-1.522-3.338-3.332-6.525-5.266-9.616l-0.447-0.694
			C122.215,254.615,121.113,254.599,119.936,254.603z"/>
		<path style="fill:#3B1414;" d="M115.729,257.088c0.771,1.264,1.579,2.453,2.162,3.618l1.891,3.889
			c0.607,1.281,1.234,2.555,1.748,3.879c0.26,0.658,0.564,1.303,0.787,1.973l0.705,1.997c0.256,0.662,0.422,1.342,0.617,2.017
			c0.182,0.675,0.398,1.347,0.553,2.026l0.395,2.045c0.064,0.345,0.141,0.674,0.195,1.031l0.156,1.077
			c0.209,1.433,0.419,2.853,0.594,4.269l0.185,1.582l0.129,1.293c0,0,0.304,1.877,0.439,3.711c0.151,1.835,0.095,3.623,0.128,3.468
			c0.002,0.751-0.031,1.429-0.021,1.971c-0.025,0.53,0,0.928,0.095,1.092c0.091,0.164,0.264,0.094,0.521-0.326
			c0.124-0.212,0.299-0.508,0.441-0.916c0.075-0.203,0.156-0.432,0.242-0.689c0.075-0.258,0.147-0.544,0.226-0.859
			c0.394-1.485,0.596-3.334,0.661-4.792c0.071-1.461,0.039-2.536,0.039-2.536c-0.034-0.459-0.079-0.915-0.126-1.369l-0.162-1.453
			c-0.179-1.479-0.389-2.949-0.602-4.405c-0.12-0.738-0.184-1.433-0.344-2.194l-0.433-2.252l-0.11-0.562l-0.15-0.548l-0.309-1.095
			c-0.217-0.723-0.384-1.469-0.644-2.174c-0.507-1.417-0.972-2.854-1.573-4.226c-0.292-0.689-0.554-1.392-0.873-2.07l-0.961-2.032
			c-0.648-1.37-1.266-2.607-1.932-3.977c-0.723-1.456-1.572-2.677-2.314-3.905c-0.205-0.335-0.402-0.67-0.59-1.006
			c-0.976,0.024-1.986,0.061-3.043,0.113C114.842,255.585,115.285,256.356,115.729,257.088z"/>
		<path style="fill:#3B1414;" d="M108.416,255.509c0.1,0.143,0.173,0.255,0.262,0.394l0.25,0.461
			c0.16,0.314,0.348,0.596,0.486,0.938c0.422,0.895,0.797,1.84,1.205,2.829l1.197,2.899l0.549,1.438l0.273,0.719l0.238,0.724
			l0.471,1.448l0.38,1.462c0.188,0.668,0.319,1.38,0.47,2.077c0,0,0.115,0.459,0.287,1.143c0.158,0.685,0.375,1.597,0.537,2.505
			c0.359,1.815,0.518,3.61,0.545,3.453c0.195,1.498,0.301,2.75,0.55,3.042c0.118,0.144,0.274,0.042,0.452-0.416
			c0.09-0.229,0.187-0.547,0.291-0.97c0.08-0.422,0.163-0.947,0.237-1.589c0.184-1.51,0.181-3.357,0.097-4.814
			c-0.087-1.456-0.23-2.525-0.23-2.525c-0.169-0.858-0.321-1.699-0.559-2.562c-0.141-0.528-0.277-1.057-0.416-1.585l-0.501-1.546
			l-0.253-0.773l-0.285-0.753l-0.574-1.505l-1.205-2.923c-0.393-0.953-0.789-1.961-1.262-2.966c-0.153-0.366-0.381-0.73-0.569-1.093
			l-0.039-0.073c-1.001,0.072-2.036,0.159-3.1,0.26C108.277,255.311,108.35,255.412,108.416,255.509z"/>
		<path style="fill:#3B1414;" d="M133.252,256.443c0.029,0.05,0.052,0.106,0.076,0.159l0.427,0.924l0.382,0.956
			c0,0,0.172,0.421,0.438,1.052c0.117,0.323,0.252,0.699,0.398,1.102c0.129,0.409,0.272,0.844,0.398,1.283
			c0.508,1.755,0.812,3.545,0.82,3.385c0.326,1.483,0.557,2.731,0.832,2.993c0.133,0.129,0.275,0.01,0.41-0.464
			c0.133-0.472,0.271-1.302,0.287-2.585c0.066-1.516-0.07-3.366-0.32-4.827c-0.238-1.463-0.559-2.534-0.559-2.534
			c-0.203-0.587-0.443-1.166-0.698-1.74c-0.165-0.023-0.329-0.047-0.499-0.062c0,0-0.971-0.288-2.936-0.609
			C132.9,255.791,133.084,256.111,133.252,256.443z"/>
		<path style="fill:#3B1414;" d="M16.637,235.644c0,0.305,0,0.637,0,0.979c0.008,0.343,0.017,0.695,0.026,1.041
			c0.01,0.344,0.019,0.68,0.027,0.991c-0.007,0.291-0.013,0.557-0.019,0.783c-0.009,0.453-0.015,0.745-0.015,0.745
			s0.011,0.293-0.078,0.742c-0.083,0.452-0.14,1.048-0.29,1.702c-0.305,1.333-0.64,2.787-0.75,3.271
			c-0.172,0.934,0.123,1.57,0.676,2.403c0.822-0.679,1.249-1.079,1.44-1.945c0.12-0.472,0.455-1.896,0.767-3.281
			c0.155-0.684,0.228-1.394,0.312-1.892c0.093-0.504,0.083-0.837,0.083-0.837s0.009-0.332,0.026-0.844
			c0.006-0.257,0.014-0.559,0.022-0.888c-0.006-0.308-0.014-0.642-0.022-0.983c-0.008-0.339-0.017-0.687-0.025-1.025
			c0-0.34-0.001-0.669-0.001-0.971c0-0.083-0.001-0.158-0.002-0.236c-0.701-0.34-1.431-0.661-2.2-0.952
			C16.623,234.7,16.635,235.119,16.637,235.644z"/>
		<path style="fill:#3B1414;" d="M57.786,260.361c0.107,0.804,0.163,1.653,0.2,2.5l0.25,10.314
			c0.125,3.437,0.082,6.829-0.221,10.195c-0.051,0.715-0.157,1.419-0.232,2.128c0,0-0.007,0.118-0.018,0.325
			c-0.007,0.207-0.032,0.5-0.07,0.849c-0.083,0.695-0.128,1.638-0.281,2.549c-0.226,1.841-0.641,3.61-0.556,3.47
			c-0.101,0.762-0.267,1.436-0.32,1.985c-0.066,0.545-0.071,0.949,0.012,1.12c0.153,0.335,0.715-0.243,1.749-2.586
			c0.288-0.695,0.635-1.464,0.886-2.252c0.249-0.789,0.519-1.572,0.7-2.276c0.174-0.709,0.324-1.325,0.432-1.763
			c0.111-0.44,0.151-0.705,0.151-0.705c0.096-0.865,0.222-1.729,0.292-2.595c0.313-3.508,0.355-7.028,0.232-10.485l-0.249-10.381
			c-0.04-0.784-0.077-1.574-0.169-2.382C59.598,260.385,58.663,260.383,57.786,260.361z"/>
		<path style="fill:#3B1414;" d="M23.04,237.945c0.315,1.409,0.85,3.07,1.359,4.696c0.275,0.874,0.561,1.752,0.781,2.55
			c0.111,0.401,0.24,0.792,0.323,1.156c0.083,0.365,0.164,0.708,0.237,1.025c0.17,0.637,0.216,1.157,0.276,1.523
			c0.055,0.367,0.086,0.575,0.086,0.575s0.019,0.062,0.051,0.171c0.039,0.111,0.066,0.264,0.101,0.449
			c0.061,0.377,0.197,0.846,0.248,1.387c0.142,1.034,0.257,2.156,0.301,2.053c0.182,0.919,0.495,1.689,0.823,1.823
			c0.338,0.14,0.698-0.314,1.083-1.716c0.292-0.829,0.545-1.874,0.692-2.753c0.057-0.451,0.098-0.847,0.125-1.131
			c0.034-0.287,0.026-0.45,0.026-0.45s-0.036-0.25-0.1-0.687c-0.032-0.22-0.071-0.485-0.116-0.789
			c-0.023-0.152-0.048-0.315-0.073-0.486c-0.037-0.164-0.077-0.338-0.118-0.518c-0.252-1.211-0.672-2.701-1.136-4.193
			C26.742,241.107,25.102,239.461,23.04,237.945z"/>
		<path style="fill:#3B1414;" d="M28.293,266.721c0,0,7.068-4.844,6.257-17.661c-1.171-0.507-2.196-0.845-2.98-0.932
			C31.57,248.128,33.167,259.078,28.293,266.721z"/>
		<path style="fill:#3B1414;" d="M39.376,273.6c0,0,5.11-5.542,3.415-19.968c-0.813-0.511-1.642-1.021-2.468-1.513
			C40.324,252.124,42.241,265.29,39.376,273.6z"/>
		<path style="fill:#3B1414;" d="M53.166,260.17c0.108,0.313,0.156,0.695,0.239,1.04c0.081,0.35,0.146,0.707,0.197,1.071
			c0.179,1.022,0.287,2.062,0.379,3.103c0.031,0.705,0.105,1.408,0.1,2.115c0,0,0.038,0.467,0.092,1.164
			c0.034,0.71,0.081,1.654,0.125,2.59c-0.004,0.911-0.009,1.812-0.012,2.475c0.015,0.343-0.041,0.563-0.045,0.732
			c-0.014,0.163-0.015,0.242,0,0.208c-0.078,0.709-0.205,1.405-0.267,1.956c-0.06,0.559-0.058,0.968,0.03,1.131
			c0.091,0.163,0.261,0.085,0.541-0.315c0.267-0.406,0.695-1.095,1.165-2.334c0.115-0.371,0.293-0.795,0.35-1.189
			c0.079-0.409,0.158-0.821,0.235-1.227c0.074-0.419,0.147-0.832,0.218-1.23c0.041-0.396,0.082-0.778,0.12-1.135
			c0.072-0.718,0.137-1.341,0.167-1.792c0.025-0.455,0.04-0.725,0.04-0.725c0.004-0.878-0.06-1.757-0.109-2.635
			c-0.098-1.117-0.212-2.235-0.402-3.348c-0.055-0.393-0.129-0.786-0.219-1.18c-0.027-0.121-0.051-0.241-0.076-0.359
			c-1.122-0.071-2.111-0.184-2.937-0.346L53.166,260.17z"/>
		<path style="fill:#3B1414;" d="M47.75,257.114c0.042,0.312,0.042,0.712,0.065,1.063l0.055,1.13l0.063,1.355l0.089,1.29
			l0.176,2.581l0.074,2.565l0.037,1.283c0.001,0.426-0.035,0.843-0.05,1.265l-0.099,2.118c0,0,0.002,0.117,0.005,0.322
			c-0.001,0.206-0.023,0.502-0.039,0.856c-0.034,0.709-0.082,1.653-0.127,2.587c-0.054,0.958-0.094,1.917-0.119,2.576
			c-0.032,0.664-0.051,1.075-0.027,1c-0.042,0.742-0.066,1.425-0.126,1.933c-0.013,0.266-0.04,0.482-0.054,0.66
			c-0.01,0.178,0,0.319,0.034,0.409c0.061,0.175,0.242,0.146,0.564-0.244c0.33-0.388,0.732-1.176,1.075-2.426
			c0.221-0.732,0.411-1.554,0.582-2.34c0.177-0.773,0.344-1.559,0.486-2.274c0.283-1.415,0.472-2.472,0.472-2.472l0.129-2.633
			c0.012-0.447,0.05-0.899,0.048-1.344l-0.036-1.328l-0.074-2.656l-0.178-2.632l-0.088-1.316l-0.057-1.254l-0.015-0.312
			c-0.643-0.455-1.658-1.167-2.908-2.019C47.722,256.944,47.739,257.031,47.75,257.114z"/>
	</g>
	<path style="display:inline;fill:#3B1414;" d="M12.967,228.071c-7.424-0.354-7.424,7.658-7.424,7.658s1.668-6.055,6.715-6.284
		c0,0,2.631,6.579-1.647,11.587C17.327,234.552,12.967,228.071,12.967,228.071z"/>
	<path style="display:inline;fill:#2A0C0C;" d="M2.469,230.692c-1.119-1.628-2.582-3.907-2.935-5.176c0,0-2.118,2.45-1.168,6.866
		c0.011-0.128,0.29-3.376,1.372-4.528c0,0,0.833,1.506,2.731,2.84V230.692z"/>
	<path style="display:inline;fill:#231F20;" d="M-21.428,258.258c-0.238,1.289-0.488,3.717-0.488,3.717l0,0
		c0.559,0.285,0.885,0.746,0.885,0.746c0.404,0.271,0.796,0.478,1.177,0.639C-19.363,259.934-21.428,258.258-21.428,258.258z"/>
	<path style="display:inline;fill:#1E0000;" d="M-24.566,245.624c-3.501-0.848-4.917,1.008-5.192,1.443
		c-0.059,0.206-0.07,0.399-0.022,0.58c0,0,0.591,1.974,1.818,3.797l0.001,0C-24.3,249.512-24.562,245.695-24.566,245.624z"/>
</g>
<g id="Layer_2">
	<polygon style="fill:#FFFFFF;stroke:#000000;stroke-width:2;stroke-miterlimit:10;" points="218.992,157.442 225.339,146.215 
		229.73,161.836 220.7,168.669 	"/>
	<path style="fill:#FFFFFF;stroke:#000000;stroke-width:2;stroke-linecap:round;stroke-miterlimit:10;" d="M119.621,212.04
		l-12.156,11.327l3.041,10.054l0.552,1.823l6.839,5.889c1.067,0.923,0.418,2.674-0.996,2.674h-10.979
		c-1.908,0-4.334-4.619-5.291-6.275l-2.361-4.453l-7.605-14.348l0.515-1.234l4.164-28.398l24.828,5.618L119.621,212.04z"/>
	<path style="fill:#FFFFFF;stroke:#000000;stroke-width:2;stroke-miterlimit:10;" d="M199.944,236.502l-2.132,4.706
		c-0.796,1.759-3.309,1.704-4.025-0.089l-1.41-3.518l-1.915-8.324l-18.383-11.585l-7.881-21.254l30.396-13.951l-6.36,28.866
		l5.093,8.805l6.353,10.988C200.623,232.784,200.727,234.781,199.944,236.502z"/>
	<path style="fill:#FFFFFF;stroke:#000000;stroke-width:2;stroke-linecap:round;stroke-miterlimit:10;" d="M212.772,154.645
		l-1.936-0.271l-12.675-1.755l-7.328-1.018l-7.844-1.085l-4.848-0.676l-7.221-1l-2.176,0.45l-8.68,1.806l-5.106,1.062H93.635
		l-20.016,5.542c0,0-2.018,3.988-5.341,9.598v0.004c-1.004,1.71-2.134,3.569-3.368,5.519c-2.327,3.683-5.02,7.676-7.933,11.517
		c-0.652,0.869-1.322,1.724-1.994,2.571c-3.876,4.835-8.067,9.256-12.281,12.282c-0.981,0.711-1.963,1.341-2.944,1.886
		c-1.622,0.896-3.233,1.553-4.818,1.918c-15.329,3.503-20.561,0.996-21.597,0.329l15.688,8.07c0,0,20.697-4.244,22.414-5.793
		l20.058-14.556l-4.048,13.604l-18.472,11.447l-6.941,4.299l-2.219,13.889c-0.061,0.37-0.071,0.739-0.06,1.104
		c0.003,0.11,0.013,0.219,0.024,0.329c0.025,0.29,0.072,0.574,0.14,0.853c0.012,0.052,0.012,0.107,0.025,0.159
		c0.007,0.033,0.022,0.063,0.031,0.096c0.026,0.09,0.059,0.177,0.088,0.266c0.031,0.086,0.053,0.174,0.087,0.259
		c0.021,0.059,0.058,0.111,0.081,0.168c0.062,0.145,0.132,0.286,0.205,0.424c0.068,0.128,0.139,0.253,0.217,0.376
		c0.084,0.134,0.176,0.261,0.271,0.388c0.046,0.061,0.083,0.129,0.131,0.188c0.048,0.062,0.107,0.119,0.161,0.179
		c0.046,0.052,0.09,0.104,0.139,0.155c0.033,0.035,0.062,0.074,0.096,0.107c0.132,0.131,0.271,0.257,0.415,0.378
		c0.021,0.017,0.043,0.031,0.063,0.047c0.019,0.016,0.04,0.029,0.061,0.044c0.116,0.093,0.233,0.185,0.361,0.269
		c0.114,0.072,0.222,0.139,0.34,0.207l6.729,3.836c1.491,0.851,3.279-0.495,2.869-2.16l-1.413-5.813l1.104-8.013l3.412-0.658
		l5.451-1.049l3.557-0.684l12.268-2.363l5.831-1.121l6.78-1.305l3.982-6.355l0.885-1.407l5.222-8.333l1.278-2.04l2.851-4.549
		l0.977-1.627c0,0,31.632,10.427,46.966,11.669l-7.672,25.486v8.626c0,2.332,1.891,4.222,4.223,4.222h13.851
		c1.521,0,2.129-1.971,0.864-2.822l-6.581-4.435v-6.006l16.447-24.446l24.171-18.927l21.688-2.318l9.531-15.919L212.772,154.645z"/>
	<path style="fill:#FFFFFF;stroke:#000000;stroke-width:2;stroke-miterlimit:10;" d="M242.722,179.41l-7.458-11.315l-10.404-10.512
		l-10.329-1.899l-6.856-9.079l-7.481,19.265l9.89,3.711c-0.222,0.105-11.331,6.637-11.331,6.637l9.584-0.086l-6.361,4.242
		l4.544,0.418l-5.221,5.095l5.637,0.324l-4.281,5.528l6.781-2.471l-0.589,5.1l6.287-2.042l-0.555,5.698l6.97-7.496l5.022,4.351
		l5.861,0.321l2.506-1.308l2.116-3.119l-3.788-0.09l-4.397-1.205l-0.576-3.529l3.691-2.466l7.49,2.446l1.703-3.186L242.722,179.41z"
		/>
	<polygon points="242.722,180.664 240.382,179.41 236.226,180.081 239.775,184.774 	"/>
	<polygon points="229.948,173.812 225.113,170.673 222.146,170.673 224.146,173.955 	"/>
	<polygon points="236.421,189.061 238.642,184.95 236.235,185.171 236.421,189.061 	"/>
	<polygon points="234.324,186.772 232.261,190.593 234.5,190.388 234.324,186.772 	"/>
	<polygon points="211.869,158.523 208.963,153.379 206.948,160.535 211.084,163.668 	"/>
</g>
<g id="Layer_3">
	<rect x="188.396" y="103.338" style="fill:#2E3192;" width="3.664" height="48.179"/>
	<rect x="175.706" y="103.338" style="fill:#2E3192;" width="3.583" height="48.179"/>
	<rect x="151.584" y="103.338" style="fill:#2E3192;" width="4.34" height="48.821"/>
	<rect x="141.61" y="103.338" style="fill:#2E3192;" width="3.922" height="49.379"/>
	<rect x="108.512" y="103.338" style="fill:#2E3192;" width="3.698" height="48.821"/>
	<rect x="96.775" y="103.338" style="fill:#2E3192;" width="3.871" height="49.994"/>
	<rect x="78.094" y="103.338" style="fill:#2E3192;" width="3.943" height="52.578"/>
	<rect x="65.975" y="102.6" style="fill:#2E3192;" width="3.664" height="66.66"/>
	<rect x="60.519" y="103.338" style="fill:#2E3192;" width="3.584" height="73.529"/>
	<rect x="53.204" y="103.338" style="fill:#2E3192;" width="3.922" height="79.715"/>
	<rect x="46.687" y="102.6" style="fill:#2E3192;" width="3.922" height="91.669"/>
	<rect x="39.979" y="103.338" style="fill:#2E3192;" width="3.698" height="94.404"/>
	<rect x="32.474" y="103.338" style="fill:#2E3192;" width="3.871" height="99.988"/>
	<rect x="12.798" y="103.216" style="fill:#2E3192;" width="3.871" height="100.814"/>
</g>
<g id="Layer_5">
	<path style="fill:#2E3192;" d="M191.779,169.198c-0.266-1.926-2.253-12.858-3.383-19.034l3.664,1.018
		C191.954,156.192,191.729,167.245,191.779,169.198z"/>
	<polygon style="fill:#2E3192;" points="181.228,166.739 179.018,188.614 177.661,168.369 176.642,159.526 175.706,149.915 
		179.245,150.59 179.698,155.803 	"/>
	<polygon style="fill:#2E3192;" points="151.584,151.17 152.305,158.365 153.584,168.602 153.119,184.657 155.911,167.67 
		155.444,155.803 155.924,149.365 	"/>
	<path style="fill:#2E3192;" d="M141.61,152.233l0.354,7.064l0.696,14.889l0.233,12.101l2.326-11.17v-16.752
		c0,0,0.183-3.102,0.312-6.132H141.61z"/>
	<polygon style="fill:#2E3192;" points="112.21,152.233 111.465,159.215 109.221,183.418 107.765,157.045 108.448,152.233 	"/>
	<polygon style="fill:#2E3192;" points="100.646,152.233 100.006,154.876 97.421,178.453 96.775,153.944 96.897,152.233 	"/>
	<polygon style="fill:#2E3192;" points="78.094,154.096 78.094,158.288 81.128,178.453 81.732,155.492 82.204,152.233 	"/>
	<polygon style="fill:#2E3192;" points="71.497,175.167 69.287,186.673 67.93,176.024 66.911,171.374 65.975,166.319 
		69.515,166.673 69.968,169.416 	"/>
	<polygon style="fill:#2E3192;" points="60.464,176.023 61.067,179.988 62.141,185.631 61.751,194.477 64.093,185.115 
		63.701,178.576 64.103,175.029 	"/>
	<path style="fill:#2E3192;" d="M53.204,183.053l0.354,3.502l0.696,7.379l0.233,5.997l2.326-5.536v-8.303
		c0,0,0.183-1.538,0.313-3.04H53.204z"/>
	<polygon style="fill:#2E3192;" points="51.131,192.631 50.386,195.111 48.141,203.707 46.687,194.341 47.369,192.631 	"/>
	<polygon style="fill:#2E3192;" points="43.763,197.539 43.123,198.478 40.537,206.851 39.892,198.147 40.015,197.539 	"/>
	<polygon style="fill:#2E3192;" points="32.354,202.411 32.354,203.625 35.389,209.464 35.993,202.814 36.464,201.871 	"/>
</g>
<g id="Layer_4">
	
		<line style="fill:none;stroke:#000000;stroke-width:2;stroke-miterlimit:10;" x1="243.962" y1="135.062" x2="12.796" y2="135.062"/>
	<line style="fill:none;stroke:#000000;stroke-width:2;stroke-miterlimit:10;" x1="243.961" y1="102.6" x2="12.798" y2="102.6"/>
</g>
<g id="Layer_6">
	
		<line style="fill:none;stroke:#2E3192;stroke-width:3;stroke-linecap:round;stroke-miterlimit:10;" x1="14.415" y1="102.6" x2="14.415" y2="66.785"/>
	
		<line style="fill:none;stroke:#2E3192;stroke-width:3;stroke-linecap:round;stroke-miterlimit:10;" x1="33.807" y1="79.684" x2="33.807" y2="51.847"/>
	
		<line style="fill:none;stroke:#2E3192;stroke-width:3;stroke-linecap:round;stroke-miterlimit:10;" x1="41.866" y1="58.297" x2="41.866" y2="35.891"/>
	
		<line style="fill:none;stroke:#2E3192;stroke-width:3;stroke-linecap:round;stroke-miterlimit:10;" x1="48.917" y1="44.039" x2="48.917" y2="26.385"/>
	
		<line style="fill:none;stroke:#2E3192;stroke-width:3;stroke-linecap:round;stroke-miterlimit:10;" x1="55.373" y1="34.109" x2="55.373" y2="17.897"/>
	
		<line style="fill:none;stroke:#2E3192;stroke-width:3;stroke-linecap:round;stroke-miterlimit:10;" x1="62.312" y1="27.234" x2="62.312" y2="12.806"/>
	
		<line style="fill:none;stroke:#2E3192;stroke-width:3;stroke-linecap:round;stroke-miterlimit:10;" x1="67.807" y1="22.652" x2="67.807" y2="9.919"/>
	
		<line style="fill:none;stroke:#2E3192;stroke-width:3;stroke-linecap:round;stroke-miterlimit:10;" x1="80.397" y1="24.688" x2="80.397" y2="12.806"/>
	
		<line style="fill:none;stroke:#2E3192;stroke-width:3;stroke-linecap:round;stroke-miterlimit:10;" x1="99.035" y1="37.588" x2="99.035" y2="27.234"/>
	
		<line style="fill:none;stroke:#2E3192;stroke-width:3;stroke-linecap:round;stroke-miterlimit:10;" x1="109.987" y1="47.094" x2="109.987" y2="37.588"/>
	
		<line style="fill:none;stroke:#2E3192;stroke-width:3;stroke-linecap:round;stroke-miterlimit:10;" x1="143.862" y1="69.637" x2="143.862" y2="63.389"/>
	
		<line style="fill:none;stroke:#2E3192;stroke-width:3;stroke-linecap:round;stroke-miterlimit:10;" x1="153.755" y1="73.141" x2="153.755" y2="69.637"/>
	
		<line style="fill:none;stroke:#2E3192;stroke-width:3;stroke-linecap:round;stroke-miterlimit:10;" x1="177.498" y1="85.389" x2="177.498" y2="82.718"/>
	
		<line style="fill:none;stroke:#2E3192;stroke-width:3;stroke-linecap:round;stroke-miterlimit:10;" x1="189.95" y1="89.19" x2="189.95" y2="87.832"/>
	
		<line style="fill:none;stroke:#2E3192;stroke-width:3;stroke-linecap:round;stroke-miterlimit:10;" x1="14.415" y1="66.785" x2="33.807" y2="79.684"/>
	
		<line style="fill:none;stroke:#2E3192;stroke-width:3;stroke-linecap:round;stroke-miterlimit:10;" x1="33.807" y1="51.847" x2="41.866" y2="58.297"/>
	
		<line style="fill:none;stroke:#2E3192;stroke-width:3;stroke-linecap:round;stroke-miterlimit:10;" x1="41.866" y1="35.891" x2="48.917" y2="44.039"/>
	
		<line style="fill:none;stroke:#2E3192;stroke-width:3;stroke-linecap:round;stroke-miterlimit:10;" x1="48.917" y1="26.385" x2="55.373" y2="33.345"/>
	
		<line style="fill:none;stroke:#2E3192;stroke-width:3;stroke-linecap:round;stroke-miterlimit:10;" x1="55.373" y1="17.897" x2="62.312" y2="27.234"/>
	
		<line style="fill:none;stroke:#2E3192;stroke-width:3;stroke-linecap:round;stroke-miterlimit:10;" x1="62.312" y1="12.806" x2="67.807" y2="22.652"/>
	
		<line style="fill:none;stroke:#2E3192;stroke-width:3;stroke-linecap:round;stroke-miterlimit:10;" x1="67.807" y1="9.919" x2="80.397" y2="24.688"/>
	
		<line style="fill:none;stroke:#2E3192;stroke-width:3;stroke-linecap:round;stroke-miterlimit:10;" x1="80.397" y1="12.806" x2="99.035" y2="37.588"/>
	
		<line style="fill:none;stroke:#2E3192;stroke-width:3;stroke-linecap:round;stroke-miterlimit:10;" x1="99.035" y1="27.234" x2="109.987" y2="47.094"/>
	
		<line style="fill:none;stroke:#2E3192;stroke-width:3;stroke-linecap:round;stroke-miterlimit:10;" x1="109.987" y1="37.588" x2="143.862" y2="69.637"/>
	
		<line style="fill:none;stroke:#2E3192;stroke-width:3;stroke-linecap:round;stroke-miterlimit:10;" x1="143.862" y1="63.389" x2="153.755" y2="73.141"/>
	
		<line style="fill:none;stroke:#2E3192;stroke-width:3;stroke-linecap:round;stroke-miterlimit:10;" x1="153.755" y1="69.637" x2="177.498" y2="85.389"/>
	
		<line style="fill:none;stroke:#2E3192;stroke-width:3;stroke-linecap:round;stroke-miterlimit:10;" x1="177.498" y1="82.718" x2="189.95" y2="89.19"/>
	
		<line style="fill:none;stroke:#2E3192;stroke-width:3;stroke-linecap:round;stroke-miterlimit:10;" x1="189.95" y1="87.832" x2="243.961" y2="102.6"/>
</g>
<g id="Layer_7">
	<g>
		<g>
			
				<line style="fill:none;stroke:#BE1E2D;stroke-width:3;stroke-linecap:round;stroke-miterlimit:10;" x1="67.807" y1="9.919" x2="67.807" y2="12.919"/>
			
				<line style="fill:none;stroke:#BE1E2D;stroke-width:3;stroke-linecap:round;stroke-miterlimit:10;stroke-dasharray:5.7787,5.7787;" x1="67.807" y1="18.698" x2="67.807" y2="96.71"/>
			
				<line style="fill:none;stroke:#BE1E2D;stroke-width:3;stroke-linecap:round;stroke-miterlimit:10;" x1="67.807" y1="99.6" x2="67.807" y2="102.6"/>
		</g>
	</g>
	<g>
		<g>
			
				<line style="fill:none;stroke:#BE1E2D;stroke-width:3;stroke-linecap:round;stroke-miterlimit:10;" x1="67.807" y1="9.919" x2="64.807" y2="9.919"/>
			
				<line style="fill:none;stroke:#BE1E2D;stroke-width:3;stroke-linecap:round;stroke-miterlimit:10;stroke-dasharray:6.7249,6.7249;" x1="58.082" y1="9.919" x2="21.095" y2="9.919"/>
			
				<line style="fill:none;stroke:#BE1E2D;stroke-width:3;stroke-linecap:round;stroke-miterlimit:10;" x1="17.733" y1="9.919" x2="14.733" y2="9.919"/>
		</g>
	</g>
	<g>
	</g>
	<g>
	</g>
	<g>
	</g>
	<g>
	</g>
	<g>
	</g>
	<g>
	</g>
</g>
</svg>
