<svg xmlns="http://www.w3.org/2000/svg" width="256" height="256"><path fill="#fff" stroke="#000" stroke-width="2" stroke-miterlimit="10" d="M219 157.4l6.3-11.2 4.4 15.6-9 6.9z"/><path d="M119.6 212l-12.1 11.4 3 10 .6 1.8 6.8 6c1 .9.4 2.6-1 2.6h-11c-1.9 0-4.3-4.6-5.3-6.3l-2.3-4.4-7.6-14.4.5-1.2 4.1-28.4 24.9 5.6-.6 17.3z" fill="#fff" stroke="#000" stroke-width="2" stroke-linecap="round" stroke-miterlimit="10"/><path d="M200 236.5l-2.2 4.7a2.2 2.2 0 0 1-4 0l-1.4-3.6-2-8.3-18.3-11.6-7.9-21.3 30.4-14-6.4 29 5.1 8.8 6.4 11c1 1.6 1 3.6.2 5.3z" fill="#fff" stroke="#000" stroke-width="2" stroke-miterlimit="10"/><path d="M212.8 154.6l-2-.2-12.6-1.8-7.4-1-7.8-1-4.9-.8-7.2-1-2.2.5-8.6 1.8-5.1 1H93.6l-20 5.6s-2 4-5.3 9.6A195.1 195.1 0 0 1 55 186.9a66.4 66.4 0 0 1-15.2 14.2c-1.7.9-3.3 1.5-4.9 1.9-15.3 3.5-20.5 1-21.6.3l15.7 8s20.7-4.1 22.4-5.7L71.5 191l-4 13.6L49 216.1l-7 4.3-2.2 13.9a5.7 5.7 0 0 0 .1 2.3v.2l.2.3v.3l.1.1a5.7 5.7 0 0 0 .7 1.2l.2.2.1.2.2.1v.1l.5.4.1.1a4.7 4.7 0 0 0 .7.5l6.7 3.8a2 2 0 0 0 2.9-2.1l-1.4-5.9 1-8 3.5-.6 5.5-1 3.5-.8 12.3-2.3 5.8-1.1 6.8-1.3 4-6.4.9-1.4 5.2-8.3 1.3-2 2.8-4.6 1-1.7s31.6 10.5 47 11.7l-7.7 25.5v8.6c0 2.4 1.9 4.2 4.2 4.2h13.9c1.5 0 2-2 .8-2.8l-6.6-4.4v-6l16.5-24.5 24.2-18.9 21.6-2.3 9.6-16-15.2-17z" fill="#fff" stroke="#000" stroke-width="2" stroke-linecap="round" stroke-miterlimit="10"/><path d="M242.7 179.4l-7.4-11.3-10.4-10.5-10.4-2-6.8-9-7.5 19.3 9.9 3.7c-.2 0-11.3 6.6-11.3 6.6h9.5l-6.3 4.2 4.5.4-5.2 5 5.6.4-4.2 5.5 6.7-2.4-.6 5 6.3-2-.5 5.7 7-7.5 5 4.4 5.8.3 2.5-1.3 2.2-3.1-3.8-.1-4.4-1.2-.6-3.6 3.7-2.4 7.5 2.4 1.7-3.2 1.5-3.3z" fill="#fff" stroke="#000" stroke-width="2" stroke-miterlimit="10"/><path d="M242.7 180.7l-2.3-1.3-4.2.7 3.6 4.7zm-12.7-6.9l-4.9-3.1h-3l2 3.3zm6.4 15.2l2.2-4-2.4.2.2 3.9zm-2.1-2.2l-2 3.8 2.2-.2-.2-3.6zm-22.4-28.3l-3-5.1-2 7.1 4.2 3.2z"/><path d="M188.4 103.3h3.7v48.2h-3.7zm-12.7 0h3.6v48.2h-3.6zm-24.1 0h4.3v48.8h-4.3zm-10 0h3.9v49.4h-3.9zm-33.1 0h3.7v48.8h-3.7zm-11.7 0h3.9v50h-3.9zm-18.7 0H82v52.6h-3.9zm-12.1-.7h3.7v66.7H66zm-5.5.7h3.6v73.5h-3.6zm-7.3 0h3.9V183h-3.9zm-6.5-.7h3.9v91.7h-3.9zm-6.7.7h3.7v94.4H40zm-7.5 0h3.9v100h-3.9zm-19.7-.1h3.9V204h-3.9z" fill="#2e3192"/><path d="M191.8 169.2l-3.4-19 3.7 1c-.1 5-.4 16-.3 18zm-10.6-2.5l-2.2 22-1.3-20.3-1-8.9-1-9.6 3.5.7.5 5.2zm-29.6-15.5l.7 7.2 1.3 10.2-.5 16 2.8-17-.5-11.8.5-6.4zm-10 1l.4 7.1.7 14.9.2 12 2.3-11v-16.8l.3-6.2h-3.9zm-29.4 0l-.7 7-2.3 24.2-1.4-26.4.6-4.8zm-11.6 0l-.6 2.7-2.6 23.6-.6-24.6.1-1.7zM78 154.1v4.2l3.1 20.2.6-23 .5-3.3zm-6.5 21.1l-2.2 11.5-1.4-10.7-1-4.6-1-5 3.6.3.5 2.7zm-11 .8l.6 4 1 5.6-.3 8.9L64 185l-.4-6.5.4-3.6zm-7.3 7l.4 3.6.7 7.3.2 6 2.3-5.5V186l.3-3h-3.9zm-2.1 9.6l-.7 2.5-2.3 8.6-1.4-9.4.7-1.7zm-7.3 4.9l-.7 1-2.6 8.4-.6-8.8.1-.6zm-11.4 4.9v1.2l3 5.9.6-6.7.5-1z" fill="#2e3192"/><path d="M244 135.1H12.8M244 102.6H12.8" fill="none" stroke="#000" stroke-width="2" stroke-miterlimit="10"/><path d="M14.4 102.6V66.8m19.4 12.9V51.8m8.1 6.5V35.9m7 8.1V26.4m6.5 7.7V17.9m6.9 9.3V12.8m5.5 9.9V9.9m12.6 14.8V12.8M99 37.6V27.2m11 19.9v-9.5m33.9 32v-6.2m9.9 9.7v-3.5m23.7 15.8v-2.7m12.4 6.5v-1.4m-175.5-21l19.4 12.9m0-27.9l8.1 6.5m0-22.4l7 8.1m0-17.6l6.5 6.9m0-15.4l6.9 9.3m0-14.4l5.5 9.9m0-12.8l12.6 14.8m0-11.9L99 37.6m0-10.4l11 19.9m0-9.5l33.9 32m0-6.2l9.9 9.7m0-3.5l23.7 15.8m0-2.7l12.4 6.5m0-1.4l54.1 14.8" fill="none" stroke="#2e3192" stroke-width="3" stroke-linecap="round" stroke-miterlimit="10"/><g fill="none" stroke="#be1e2d" stroke-width="3" stroke-linecap="round" stroke-miterlimit="10"><path d="M67.8 9.9v3"/><path stroke-dasharray="5.7787,5.7787" d="M67.8 18.7v78"/><path d="M67.8 99.6v3m0-92.7h-3"/><path stroke-dasharray="6.7249,6.7249" d="M58.1 9.9h-37"/><path d="M17.7 9.9h-3"/></g></svg>